<svg width="77" height="40" viewBox="0 0 77 40" fill="none" xmlns="http://www.w3.org/2000/svg">
<rect width="77" height="40" rx="20" fill="white"/>
<path d="M23.6302 25H17.4002V15.074H19.0802V23.404H23.6302V25ZM26.4825 23.18C26.8558 23.5627 27.3085 23.754 27.8405 23.754C28.3725 23.754 28.8205 23.5627 29.1845 23.18C29.5578 22.7973 29.7445 22.2653 29.7445 21.584C29.7445 20.912 29.5578 20.3893 29.1845 20.016C28.8205 19.6333 28.3725 19.442 27.8405 19.442C27.3085 19.442 26.8558 19.6333 26.4825 20.016C26.1185 20.3893 25.9365 20.912 25.9365 21.584C25.9365 22.256 26.1185 22.788 26.4825 23.18ZM27.8405 17.972C28.8671 17.972 29.7118 18.3127 30.3745 18.994C31.0465 19.6753 31.3825 20.5387 31.3825 21.584C31.3825 22.6293 31.0465 23.4973 30.3745 24.188C29.7118 24.8693 28.8671 25.21 27.8405 25.21C26.8231 25.21 25.9785 24.8693 25.3065 24.188C24.6438 23.4973 24.3125 22.6293 24.3125 21.584C24.3125 20.5387 24.6438 19.6753 25.3065 18.994C25.9785 18.3127 26.8231 17.972 27.8405 17.972ZM32.3079 25.378L33.8059 24.986C33.8619 25.4153 34.0439 25.7653 34.3519 26.036C34.6692 26.316 35.0566 26.456 35.5139 26.456C36.8019 26.456 37.4459 25.7747 37.4459 24.412V23.698C37.2872 23.9873 37.0352 24.2253 36.6899 24.412C36.3446 24.5987 35.9386 24.692 35.4719 24.692C34.5572 24.692 33.8012 24.3793 33.2039 23.754C32.6159 23.1287 32.3219 22.3353 32.3219 21.374C32.3219 20.45 32.6159 19.666 33.2039 19.022C33.7919 18.378 34.5479 18.056 35.4719 18.056C36.4706 18.056 37.1426 18.3873 37.4879 19.05V18.182H39.0559V24.356C39.0559 25.364 38.7712 26.1993 38.2019 26.862C37.6326 27.534 36.7506 27.87 35.5559 27.87C34.6786 27.87 33.9412 27.632 33.3439 27.156C32.7466 26.68 32.4012 26.0873 32.3079 25.378ZM35.7379 23.306C36.2606 23.306 36.6806 23.1333 36.9979 22.788C37.3246 22.4333 37.4879 21.962 37.4879 21.374C37.4879 20.7953 37.3246 20.3333 36.9979 19.988C36.6712 19.6333 36.2512 19.456 35.7379 19.456C35.2152 19.456 34.7859 19.6333 34.4499 19.988C34.1232 20.3333 33.9599 20.7953 33.9599 21.374C33.9599 21.962 34.1232 22.4333 34.4499 22.788C34.7766 23.1333 35.2059 23.306 35.7379 23.306ZM42.526 23.18C42.8994 23.5627 43.352 23.754 43.884 23.754C44.416 23.754 44.864 23.5627 45.228 23.18C45.6014 22.7973 45.788 22.2653 45.788 21.584C45.788 20.912 45.6014 20.3893 45.228 20.016C44.864 19.6333 44.416 19.442 43.884 19.442C43.352 19.442 42.8994 19.6333 42.526 20.016C42.162 20.3893 41.98 20.912 41.98 21.584C41.98 22.256 42.162 22.788 42.526 23.18ZM43.884 17.972C44.9107 17.972 45.7554 18.3127 46.418 18.994C47.09 19.6753 47.426 20.5387 47.426 21.584C47.426 22.6293 47.09 23.4973 46.418 24.188C45.7554 24.8693 44.9107 25.21 43.884 25.21C42.8667 25.21 42.022 24.8693 41.35 24.188C40.6874 23.4973 40.356 22.6293 40.356 21.584C40.356 20.5387 40.6874 19.6753 41.35 18.994C42.022 18.3127 42.8667 17.972 43.884 17.972ZM53.2384 24.244C53.0798 24.5427 52.8184 24.776 52.4544 24.944C52.0998 25.112 51.7171 25.196 51.3064 25.196C50.5131 25.196 49.8831 24.9393 49.4164 24.426C48.9591 23.9127 48.7304 23.264 48.7304 22.48V18.182H50.3544V22.186C50.3544 22.6433 50.4664 23.0167 50.6904 23.306C50.9144 23.5953 51.2598 23.74 51.7264 23.74C52.1838 23.74 52.5338 23.6 52.7764 23.32C53.0284 23.04 53.1544 22.6713 53.1544 22.214V18.182H54.7784V23.754C54.7784 24.1647 54.8018 24.58 54.8484 25H53.2944C53.2571 24.7947 53.2384 24.5427 53.2384 24.244ZM58.7845 16.096V18.182H60.1985V19.624H58.7845V22.788C58.7845 23.0867 58.8545 23.306 58.9945 23.446C59.1345 23.5767 59.3539 23.642 59.6525 23.642C59.8392 23.642 60.0259 23.6233 60.2125 23.586V24.93C59.9699 25.0327 59.6385 25.084 59.2185 25.084C58.5839 25.084 58.0845 24.9067 57.7205 24.552C57.3565 24.188 57.1745 23.6887 57.1745 23.054V19.624H55.9145V18.182H56.2645C56.6099 18.182 56.8712 18.084 57.0485 17.888C57.2259 17.692 57.3145 17.4353 57.3145 17.118V16.096H58.7845Z" fill="#2C2C31"/>
</svg>
