<svg width="371" height="76" viewBox="0 0 371 76" fill="none" xmlns="http://www.w3.org/2000/svg">
<g filter="url(#filter0_d_2_146)">
<rect x="10" y="6" width="351" height="56" rx="8" fill="#F2613D"/>
<path d="M165.481 30.7L163.001 31.46C162.908 30.9533 162.655 30.4933 162.241 30.08C161.828 29.6667 161.221 29.46 160.421 29.46C159.768 29.46 159.235 29.64 158.821 30C158.408 30.3467 158.201 30.7667 158.201 31.26C158.201 32.1267 158.715 32.66 159.741 32.86L161.721 33.24C162.975 33.48 163.948 33.98 164.641 34.74C165.335 35.5 165.681 36.3933 165.681 37.42C165.681 38.5933 165.215 39.62 164.281 40.5C163.361 41.3667 162.121 41.8 160.561 41.8C159.668 41.8 158.861 41.6667 158.141 41.4C157.421 41.1333 156.841 40.78 156.401 40.34C155.961 39.8867 155.615 39.4133 155.361 38.92C155.121 38.4133 154.975 37.8933 154.921 37.36L157.481 36.68C157.548 37.44 157.841 38.0733 158.361 38.58C158.895 39.0867 159.635 39.34 160.581 39.34C161.301 39.34 161.861 39.18 162.261 38.86C162.675 38.54 162.881 38.12 162.881 37.6C162.881 37.1867 162.728 36.8333 162.421 36.54C162.128 36.2333 161.708 36.0267 161.161 35.92L159.181 35.52C158.035 35.28 157.128 34.8067 156.461 34.1C155.795 33.3933 155.461 32.5133 155.461 31.46C155.461 30.2067 155.941 29.1533 156.901 28.3C157.875 27.4467 159.041 27.02 160.401 27.02C161.215 27.02 161.941 27.1333 162.581 27.36C163.221 27.5867 163.735 27.8933 164.121 28.28C164.508 28.6533 164.808 29.04 165.021 29.44C165.235 29.84 165.388 30.26 165.481 30.7ZM170.279 41.5H167.619V31.66H170.279V41.5ZM167.299 28.44C167.299 27.9867 167.459 27.6 167.779 27.28C168.099 26.9467 168.485 26.78 168.939 26.78C169.392 26.78 169.779 26.94 170.099 27.26C170.419 27.58 170.579 27.9733 170.579 28.44C170.579 28.88 170.419 29.26 170.099 29.58C169.779 29.9 169.392 30.06 168.939 30.06C168.485 30.06 168.099 29.9 167.779 29.58C167.459 29.26 167.299 28.88 167.299 28.44ZM172.272 42.04L174.672 41.4C174.766 41.9467 175.019 42.3933 175.432 42.74C175.846 43.0867 176.359 43.26 176.972 43.26C178.719 43.26 179.592 42.3467 179.592 40.52V39.8C179.366 40.16 179.019 40.46 178.552 40.7C178.086 40.94 177.519 41.06 176.852 41.06C175.546 41.06 174.452 40.6067 173.572 39.7C172.706 38.7933 172.272 37.6533 172.272 36.28C172.272 34.9467 172.706 33.8133 173.572 32.88C174.439 31.9467 175.532 31.48 176.852 31.48C177.572 31.48 178.172 31.6133 178.652 31.88C179.132 32.1333 179.466 32.4467 179.652 32.82V31.66H182.212V40.44C182.212 41.92 181.786 43.1467 180.932 44.12C180.079 45.1067 178.786 45.6 177.052 45.6C175.759 45.6 174.672 45.2533 173.792 44.56C172.926 43.8667 172.419 43.0267 172.272 42.04ZM177.312 38.78C177.992 38.78 178.546 38.5533 178.972 38.1C179.412 37.6467 179.632 37.04 179.632 36.28C179.632 35.5333 179.406 34.9333 178.952 34.48C178.512 34.0267 177.966 33.8 177.312 33.8C176.632 33.8 176.066 34.0267 175.612 34.48C175.172 34.9333 174.952 35.5333 174.952 36.28C174.952 37.04 175.172 37.6467 175.612 38.1C176.052 38.5533 176.619 38.78 177.312 38.78ZM187.412 35.84V41.5H184.752V31.66H187.332V32.88C187.612 32.4 188.012 32.0333 188.532 31.78C189.052 31.5267 189.599 31.4 190.172 31.4C191.332 31.4 192.212 31.7667 192.812 32.5C193.425 33.22 193.732 34.1533 193.732 35.3V41.5H191.072V35.76C191.072 35.1733 190.919 34.7 190.612 34.34C190.319 33.98 189.865 33.8 189.252 33.8C188.692 33.8 188.245 33.9933 187.912 34.38C187.579 34.7667 187.412 35.2533 187.412 35.84ZM203.725 41.5H201.065V31.66H203.725V41.5ZM200.745 28.44C200.745 27.9867 200.905 27.6 201.225 27.28C201.545 26.9467 201.932 26.78 202.385 26.78C202.838 26.78 203.225 26.94 203.545 27.26C203.865 27.58 204.025 27.9733 204.025 28.44C204.025 28.88 203.865 29.26 203.545 29.58C203.225 29.9 202.838 30.06 202.385 30.06C201.932 30.06 201.545 29.9 201.225 29.58C200.905 29.26 200.745 28.88 200.745 28.44ZM209.079 35.84V41.5H206.419V31.66H208.999V32.88C209.279 32.4 209.679 32.0333 210.199 31.78C210.719 31.5267 211.266 31.4 211.839 31.4C212.999 31.4 213.879 31.7667 214.479 32.5C215.092 33.22 215.399 34.1533 215.399 35.3V41.5H212.739V35.76C212.739 35.1733 212.586 34.7 212.279 34.34C211.986 33.98 211.532 33.8 210.919 33.8C210.359 33.8 209.912 33.9933 209.579 34.38C209.246 34.7667 209.079 35.2533 209.079 35.84Z" fill="white"/>
</g>
<defs>
<filter id="filter0_d_2_146" x="0" y="0" width="371" height="76" filterUnits="userSpaceOnUse" color-interpolation-filters="sRGB">
<feFlood flood-opacity="0" result="BackgroundImageFix"/>
<feColorMatrix in="SourceAlpha" type="matrix" values="0 0 0 0 0 0 0 0 0 0 0 0 0 0 0 0 0 0 127 0" result="hardAlpha"/>
<feOffset dy="4"/>
<feGaussianBlur stdDeviation="5"/>
<feColorMatrix type="matrix" values="0 0 0 0 0.172549 0 0 0 0 0.172549 0 0 0 0 0.192157 0 0 0 0.15 0"/>
<feBlend mode="normal" in2="BackgroundImageFix" result="effect1_dropShadow_2_146"/>
<feBlend mode="normal" in="SourceGraphic" in2="effect1_dropShadow_2_146" result="shape"/>
</filter>
</defs>
</svg>
