<svg width="125" height="125" viewBox="0 0 125 125" fill="none" xmlns="http://www.w3.org/2000/svg">
<path fill-rule="evenodd" clip-rule="evenodd" d="M62.5 0.5C96.6867 0.5 124.5 28.3125 124.5 62.5C124.5 96.6875 96.6867 124.5 62.5 124.5C28.3133 124.5 0.5 96.6875 0.5 62.5C0.5 28.3125 28.3133 0.5 62.5 0.5ZM62.5 6.04805C31.3721 6.04805 6.04792 31.3728 6.04792 62.5C6.04792 93.6287 31.3721 118.952 62.5 118.952C93.6279 118.952 118.952 93.6287 118.952 62.5C118.952 31.3728 93.6279 6.04805 62.5 6.04805ZM45.2751 28.2139L46.7139 30.5913L48.1657 32.9484C47.9546 33.0799 44.1037 35.5801 43.1276 40.819C51.4338 35.7203 61.2194 38.7639 61.7139 38.9229L60.0162 44.2051C59.7053 44.1054 54.5024 42.5229 49.2358 44.1299C58.4458 46.0954 63.9669 53.2087 64.2633 53.5989L59.8398 56.9518C59.5882 56.6252 54.3896 50.048 46.0429 49.2778C51.5828 56.8868 61.7183 74.3448 63.4824 101.89H65.8149C67.2104 81.8425 74.2151 68.6001 78.7008 62.0317C73.3012 63.5015 71.1249 68.6999 71.0121 68.9802L65.8583 66.9208C67.0687 63.8974 70.3281 59.3075 75.6713 57.209C72.2904 56.7061 69.3376 57.618 69.2884 57.6325L67.5835 52.3546C67.9624 52.2303 75.1464 49.9975 81.6624 53.3171C80.653 48.8037 77.6495 45.7283 77.6091 45.6879L81.5395 41.7714C81.7882 42.0214 86.4705 46.8223 87.3801 53.8634C90.2477 52.6985 94.5078 51.8242 100.746 52.265L100.359 57.7972C97.7368 57.618 94.2518 57.7683 91.4146 58.3999C97.9667 62.3496 100.532 70.635 100.665 71.0844L95.3508 72.6814C95.3248 72.5961 93.1702 65.717 88.2217 62.9841C88.8724 67.3717 89.046 74.4041 86.0541 82.8195L80.8237 80.961C83.0202 74.7827 83.2473 69.4543 82.945 65.7285C78.9148 71.8504 72.7242 83.9627 71.3881 101.89H77.6958V107.437H51.1012V101.89H57.9209C56.7149 84.0609 51.752 70.8402 47.6842 62.7543C45.4529 58.3204 43.252 54.9242 41.5616 52.5858C41.0742 56.1829 41.2405 62.1733 44.4595 70.9226L39.2507 72.836C35.5098 62.6734 35.3912 55.5947 36.133 51.1406C30.2562 54.1871 27.5362 60.0041 27.5029 60.0778L22.4388 57.8059C22.4555 57.769 22.502 57.6676 22.5792 57.511L22.6667 57.3364C23.5959 55.5093 27.3274 48.9809 34.6696 45.6922C30.6004 43.9565 25.3468 44.4522 25.2774 44.4594L24.6686 38.9474C25.049 38.9055 31.8194 38.2133 37.4663 40.8869C38.4872 32.4324 44.9381 28.4162 45.2751 28.2139ZM74.5406 17.2445C80.0857 17.2445 84.5971 21.7542 84.5971 27.2991C84.5971 32.8439 80.0857 37.355 74.5406 37.355C68.997 37.355 64.4871 32.8439 64.4871 27.2991C64.4871 21.7542 68.997 17.2445 74.5406 17.2445ZM74.5406 22.8009C72.0605 22.8009 70.0438 24.8191 70.0438 27.2991C70.0438 29.779 72.0605 31.7986 74.5406 31.7986C77.0222 31.7986 79.0404 29.779 79.0404 27.2991C79.0404 24.8191 77.0222 22.8009 74.5406 22.8009Z" fill="#2C2C31"/>
</svg>
